<svg width="28" height="28" viewBox="0 0 28 28" fill="none" xmlns="http://www.w3.org/2000/svg">
<path d="M21.2901 15.6446C20.3731 17.5026 19.1318 19.3552 17.8601 21.0176C16.5923 22.6748 15.3202 24.1094 14.3634 25.1308C14.2363 25.2666 14.1149 25.3948 14 25.5151C13.8851 25.3948 13.7637 25.2666 13.6366 25.1308C12.6798 24.1094 11.4077 22.6748 10.1399 21.0176C8.8682 19.3552 7.62693 17.5026 6.7099 15.6446C5.78341 13.7674 5.25 12.0083 5.25 10.5C5.25 5.66751 9.16751 1.75 14 1.75C18.8325 1.75 22.75 5.66751 22.75 10.5C22.75 12.0083 22.2166 13.7674 21.2901 15.6446ZM14 28C14 28 24.5 18.049 24.5 10.5C24.5 4.70101 19.799 0 14 0C8.20101 0 3.5 4.70101 3.5 10.5C3.5 18.049 14 28 14 28Z" fill="white"/>
<path d="M14 14C12.067 14 10.5 12.433 10.5 10.5C10.5 8.567 12.067 7 14 7C15.933 7 17.5 8.567 17.5 10.5C17.5 12.433 15.933 14 14 14ZM14 15.75C16.8995 15.75 19.25 13.3995 19.25 10.5C19.25 7.6005 16.8995 5.25 14 5.25C11.1005 5.25 8.75 7.6005 8.75 10.5C8.75 13.3995 11.1005 15.75 14 15.75Z" fill="white"/>
</svg>
