<svg width="28" height="26" viewBox="0 0 28 26" fill="none" xmlns="http://www.w3.org/2000/svg">
<path d="M0 4.33333C0 1.9401 1.567 0 3.5 0H24.5C26.433 0 28 1.9401 28 4.33333V21.6667C28 24.0599 26.433 26 24.5 26H3.5C1.567 26 0 24.0599 0 21.6667V4.33333ZM3.5 2.16667C2.5335 2.16667 1.75 3.13672 1.75 4.33333V4.80329L14 13.9033L26.25 4.80329V4.33333C26.25 3.13672 25.4665 2.16667 24.5 2.16667H3.5ZM26.25 7.33004L18.0109 13.4505L26.25 19.728V7.33004ZM26.1909 22.227L16.3202 14.7065L14 16.43L11.6798 14.7065L1.80909 22.227C2.00855 23.152 2.69001 23.8333 3.5 23.8333H24.5C25.31 23.8333 25.9914 23.152 26.1909 22.227ZM1.75 19.728L9.98913 13.4505L1.75 7.33004V19.728Z" fill="white"/>
</svg>
