<svg width="23" height="27" viewBox="0 0 23 27" fill="none" xmlns="http://www.w3.org/2000/svg">
<path d="M6.39108 17.7606C9.15896 21.0914 12.5365 23.6169 16.2262 25.3097C17.4371 25.8651 18.8463 25.6066 19.8709 24.7551L21.603 23.3158C22.4662 22.5984 22.5054 21.2869 21.6865 20.5193L18.4035 17.4418C17.9851 17.0497 17.4098 16.8717 16.8431 16.959L13.4083 17.4885C12.7605 17.5883 12.1078 17.341 11.6889 16.8369L8.26898 12.7215C7.85007 12.2174 7.72637 11.5304 7.94311 10.9118L9.09233 7.63196C9.28194 7.09084 9.21223 6.4926 8.9033 6.00956L6.47878 2.21865C5.87405 1.27312 4.57745 1.07156 3.71422 1.7889L1.98214 3.22825C0.957558 4.07968 0.445389 5.4178 0.769859 6.70986C1.75861 10.6471 3.6232 14.4299 6.39108 17.7606Z" stroke="white"/>
</svg>
