<svg width="106" height="121" viewBox="0 0 106 121" fill="none" xmlns="http://www.w3.org/2000/svg">
<path d="M8.30524 82.2357C7.9468 82.3552 7.53754 82.5104 7.08296 82.6931C6.62975 82.8743 6.19028 83.0776 5.76866 83.2973C5.34704 83.5171 4.96937 83.7574 4.63565 84.0225C4.30329 84.2875 4.06982 84.5759 3.93524 84.8973C3.80477 85.2063 3.71825 85.492 3.67018 85.7584C3.62348 86.0234 3.6331 86.2913 3.70177 86.5591C3.77181 86.8269 3.90365 87.1056 4.10004 87.3954C4.29643 87.6852 4.57796 87.9997 4.94602 88.3403C5.35253 88.718 5.77003 88.9583 6.19577 89.0572C6.62151 89.1561 7.01429 89.1945 7.37686 89.1725C8.08688 87.2114 8.41511 86.3009 9.40804 84.0554C9.10179 83.7766 8.94934 83.6379 8.64583 83.3619C8.74746 83.1353 8.79965 83.0199 8.90814 82.7865C10.6756 84.4015 11.5766 85.2475 13.4072 86.9216C13.3111 87.1496 13.2644 87.2622 13.1738 87.4861C12.7494 87.1015 12.5365 86.9079 12.1149 86.5247C9.70331 92.3161 9.8791 93.7101 6.93738 100.992C7.40844 101.401 7.64466 101.605 8.11847 102.013C8.00723 102.291 7.95092 102.432 7.83418 102.719C5.6739 100.901 4.61093 99.9685 2.52892 98.1392C2.66214 97.8288 2.72806 97.6777 2.85441 97.3797C3.2774 97.7587 3.49027 97.9496 3.91738 98.33C5.75081 93.9587 6.14633 92.6046 7.20656 89.6491C6.83026 89.7082 6.33998 89.6766 5.73295 89.5571C5.12593 89.4362 4.49419 89.2591 3.8391 89.0297C3.18264 88.8004 2.54266 88.5202 1.92053 88.1906C1.2984 87.861 0.787513 87.5135 0.387868 87.1441C0.232679 87.0013 0.128304 86.8406 0.0706235 86.6634C0.0129427 86.4849 -0.00903089 86.3105 0.00332928 86.1388C0.0156894 85.9671 0.0459032 85.8065 0.0939705 85.6554C0.142038 85.5057 0.190105 85.3766 0.236799 85.2709C0.79438 84.006 1.5044 83.1779 2.45888 82.5557C3.41199 81.9336 4.5656 81.4035 5.94308 80.9462C5.31957 80.3996 5.01057 80.1318 4.39668 79.6113C4.5093 79.3847 4.56698 79.2693 4.68509 79.0331C6.10788 80.2471 6.83301 80.8995 8.30524 82.2385V82.2357Z" fill="white"/>
<path d="M24.0974 99.5372C24.0905 99.5661 24.0589 99.6045 24.0068 99.6526C23.9532 99.702 23.8708 99.7309 23.7596 99.7405C23.6483 99.7501 23.5027 99.7281 23.3242 99.6746C23.1457 99.6196 22.9342 99.5084 22.6897 99.3367C22.5318 99.2255 22.3368 99.0662 22.1033 98.856C21.8685 98.6445 21.635 98.4028 21.4029 98.1295C21.1694 97.8549 20.9511 97.5637 20.7451 97.2533C20.5404 96.9443 20.388 96.6367 20.285 96.3359C20.1559 95.961 20.0858 95.6039 20.0845 95.273C20.0817 94.942 20.1009 94.6206 20.1408 94.3116C20.1806 94.0026 20.2232 93.6922 20.2699 93.3846C20.3166 93.0756 20.3179 92.7419 20.2767 92.3807C19.5763 92.4548 18.9872 92.5839 18.5134 92.7666C18.0382 92.9479 17.6289 93.2019 17.2897 93.5288C16.9505 93.8543 16.658 94.2759 16.4162 94.795C16.1745 95.3142 15.9479 95.9569 15.7309 96.7287C15.7117 96.7988 15.6952 96.8729 15.6829 96.9484C15.6705 97.024 15.6609 97.1036 15.6554 97.186C16.2116 97.3797 16.7101 97.6008 17.1524 97.8521C17.5946 98.1034 18.0862 98.4454 18.6287 98.8753C19.2989 99.4068 19.8634 99.9369 20.3207 100.472C20.7794 101.009 21.1584 101.526 21.4578 102.031C21.7558 102.535 21.9948 103.02 22.1706 103.484C22.3464 103.948 22.4947 104.374 22.6142 104.755C22.3326 104.488 22.069 104.255 21.8245 104.053C21.58 103.851 21.3411 103.666 21.1062 103.494C20.8714 103.322 20.6228 103.155 20.3605 102.993C20.0968 102.829 19.8071 102.653 19.4912 102.462C19.531 101.732 19.4637 101.13 19.2907 100.646C19.1176 100.161 18.7592 99.7089 18.2167 99.2735C17.8445 98.9755 17.4572 98.7256 17.0507 98.5223C16.6456 98.3191 16.1814 98.1199 15.6609 97.9222C15.7103 98.4385 15.8188 99.0057 15.9836 99.6265C16.1484 100.246 16.3064 100.872 16.4533 101.502C16.6003 102.133 16.7143 102.744 16.7912 103.333C16.8695 103.924 16.8406 104.455 16.6992 104.929C16.6442 105.113 16.5865 105.337 16.5234 105.603C16.4602 105.87 16.3737 106.144 16.2638 106.429C16.1539 106.712 16.007 107.001 15.8202 107.297C15.6334 107.592 15.3849 107.846 15.0704 108.062C15.3958 108.079 15.7598 108.052 16.1581 107.985C16.5563 107.916 16.901 107.781 17.1922 107.577C17.3323 107.492 17.5108 107.415 17.7264 107.35C17.942 107.286 18.1755 107.261 18.4296 107.275C18.6836 107.288 18.9363 107.33 19.1904 107.397C19.4431 107.466 19.6834 107.582 19.9101 107.747C20.0611 107.857 20.2026 108.014 20.3372 108.217C20.4718 108.421 20.583 108.641 20.6723 108.873C20.7615 109.107 20.822 109.332 20.8508 109.55C20.881 109.767 20.8728 109.951 20.8288 110.101C20.8027 110.19 20.7698 110.24 20.7299 110.248C20.6901 110.258 20.5857 110.204 20.4154 110.089C20.2616 109.984 20.09 109.83 19.9018 109.626C19.7123 109.423 19.5585 109.276 19.4362 109.189C19.0545 108.919 18.6644 108.735 18.262 108.64C17.8596 108.545 17.5287 108.518 17.2691 108.557C16.7829 108.645 16.2803 108.704 15.7598 108.739C15.2407 108.772 14.6858 108.728 14.1008 108.597C14.1914 108.365 14.2683 108.114 14.3301 107.847C14.3919 107.578 14.4359 107.31 14.4661 107.043C14.4963 106.775 14.5073 106.522 14.5045 106.284C14.5018 106.046 14.473 105.835 14.4221 105.651C14.2697 105.04 14.0197 104.356 13.6792 103.598C13.3372 102.839 13.0186 102.044 12.7192 101.222C12.4198 100.401 12.2001 99.5743 12.0559 98.7572C11.9117 97.9386 11.9515 97.1764 12.1657 96.4733C12.5118 95.3348 12.9939 94.5039 13.6338 93.9243C14.2752 93.3448 14.988 92.9122 15.7763 92.6183C16.5632 92.3244 17.3872 92.1074 18.2387 91.9742C19.0902 91.841 19.8812 91.6885 20.6105 91.5278C20.8151 92.128 21.0293 92.5853 21.2367 92.9053C21.4441 93.2253 21.6364 93.5055 21.8121 93.7485C21.9879 93.9916 22.1472 94.232 22.2914 94.4709C22.4343 94.7099 22.5716 95.0395 22.6911 95.4501C22.79 95.7893 22.8518 96.097 22.882 96.3634C22.9122 96.6298 22.9342 96.8729 22.9479 97.0926C22.9616 97.3124 22.9809 97.5156 23.0056 97.701C23.0303 97.8864 23.0949 98.0636 23.18 98.227C23.2583 98.3754 23.353 98.5251 23.4712 98.6555C23.5879 98.786 23.6964 98.9068 23.7939 99.014C23.8914 99.1225 23.9724 99.2186 24.0356 99.3024C24.0988 99.3861 24.1207 99.4631 24.1029 99.5358L24.0974 99.5372Z" fill="white"/>
<path d="M23.9258 113.561C25.0286 109.887 25.3568 107.574 26.1877 103.516C26.3594 102.677 26.6835 102.008 27.1546 101.498C27.6256 100.99 28.1859 100.613 28.83 100.353C29.4741 100.093 30.1677 99.9451 30.9079 99.8875C31.6468 99.8298 32.387 99.8463 33.1149 99.9039C33.586 99.941 34.0763 100.001 34.5761 100.082C35.076 100.162 35.5581 100.265 36.025 100.386C36.5057 100.511 36.8216 100.673 36.9713 100.912C37.121 101.151 37.1622 101.446 37.0935 101.821C37.0331 102.148 36.8394 102.534 36.5043 102.999C36.1692 103.465 35.7531 103.977 35.2518 104.521C34.7506 105.065 34.1902 105.618 33.5709 106.158C32.9515 106.698 32.3348 107.19 31.721 107.624C31.1057 108.058 30.5165 108.409 29.9562 108.681C29.3945 108.953 28.9303 109.126 28.565 109.218C28.0884 111.823 27.8467 113.14 27.2658 115.283C27.822 115.544 28.1008 115.667 28.6611 115.906C28.6103 116.104 28.5842 116.201 28.532 116.391C26.1644 115.413 24.9902 114.816 22.6664 113.482C22.7365 113.267 22.7708 113.157 22.8395 112.937C23.2735 113.192 23.4918 113.319 23.9286 113.563L23.9258 113.561ZM28.6941 108.5C29.2036 108.235 29.7351 107.908 30.2885 107.514C30.8406 107.12 31.3598 106.655 31.8432 106.135C32.3266 105.616 32.7427 105.049 33.0943 104.462C33.4445 103.874 33.6752 103.27 33.7878 102.667C33.8277 102.457 33.851 102.235 33.8579 102.002C33.8661 101.77 33.8373 101.553 33.7727 101.347C33.7096 101.141 33.5997 100.955 33.4459 100.782C33.2921 100.607 33.0806 100.471 32.81 100.365C32.582 100.276 32.3293 100.295 32.0519 100.435C31.7745 100.576 31.5012 100.765 31.232 101.009C30.9629 101.254 30.7225 101.519 30.511 101.805C30.2982 102.09 30.1553 102.322 30.0743 102.469C29.9644 102.667 29.8463 102.883 29.7543 103.109C29.6609 103.336 29.5909 103.579 29.5414 103.839C29.1967 105.646 29.036 106.617 28.6955 108.498L28.6941 108.5Z" fill="white"/>
<path d="M50.9601 103.722C50.9642 103.914 50.967 104.013 50.9725 104.216C50.4904 104.198 50.2487 104.189 49.7667 104.163C49.7942 109.401 49.8079 114.949 49.8354 119.661C50.4122 119.68 50.7006 119.688 51.276 119.701C51.2801 119.883 51.2829 119.971 51.2884 120.142C48.6735 120.088 47.351 120.024 44.743 119.801C44.7553 119.631 44.7608 119.541 44.7718 119.357C45.3033 119.403 45.5683 119.425 46.1012 119.462C46.2578 116.057 46.3361 112.874 46.4926 108.132C46.2317 107.946 45.9076 107.795 45.523 107.676C45.1371 107.556 44.7388 107.478 44.3282 107.441C43.9176 107.402 43.5111 107.398 43.11 107.43C42.709 107.46 42.3781 107.53 42.1185 107.643C41.734 112.386 41.5417 115.568 41.1558 118.973C41.7106 119.044 41.9894 119.077 42.547 119.139C42.5291 119.322 42.5209 119.411 42.503 119.583C39.9156 119.297 38.6329 119.109 36.1581 118.628C36.1897 118.458 36.2062 118.37 36.2378 118.187C36.7528 118.288 37.0124 118.336 37.5329 118.426C38.2813 113.717 38.6563 108.171 39.4061 102.936C38.9584 102.853 38.7345 102.809 38.2896 102.718C38.3212 102.515 38.3377 102.416 38.3692 102.224C40.4897 102.656 41.5595 102.833 43.7075 103.115C43.6896 103.308 43.6814 103.407 43.6635 103.611C43.1938 103.55 42.959 103.517 42.4893 103.449C42.3629 104.686 42.2998 105.417 42.1748 106.937C42.4193 106.809 42.7392 106.738 43.1361 106.716C43.533 106.695 43.9423 106.709 44.3653 106.757C44.7883 106.805 45.1948 106.887 45.5848 107.006C45.9762 107.124 46.2852 107.262 46.5132 107.427C46.564 105.907 46.5901 105.178 46.6409 103.939C46.196 103.898 45.9735 103.877 45.5285 103.829C45.5409 103.626 45.5464 103.525 45.5574 103.333C47.7122 103.563 48.7944 103.639 50.9574 103.719L50.9601 103.722Z" fill="white"/>
<path d="M63.0993 106.859C63.2229 107.766 63.2682 108.788 63.2297 109.894C63.1913 110.999 63.0745 112.113 62.874 113.187C62.6735 114.261 62.3961 115.268 62.0363 116.178C61.6765 117.089 61.2411 117.843 60.7247 118.458C60.207 119.075 59.6219 119.522 58.9723 119.848C58.3227 120.173 57.6155 120.333 56.8615 120.355C56.2298 120.374 55.6832 120.278 55.2327 120.046C54.7809 119.813 54.4114 119.496 54.123 119.066C53.8346 118.636 53.6231 118.126 53.4844 117.527C53.3443 116.928 53.2633 116.305 53.2386 115.673C53.1988 114.709 53.2606 113.677 53.413 112.617C53.5655 111.555 53.7866 110.52 54.0695 109.545C54.3524 108.57 54.693 107.67 55.0844 106.861C55.4758 106.052 55.9002 105.386 56.3589 104.844C56.8176 104.303 57.3106 103.898 57.8421 103.597C58.3736 103.296 58.9202 103.137 59.4873 103.096C59.9529 103.063 60.3869 103.123 60.7934 103.293C61.1985 103.464 61.557 103.71 61.8715 104.05C62.186 104.392 62.4497 104.8 62.6625 105.285C62.8754 105.768 63.021 106.296 63.0979 106.86L63.0993 106.859ZM59.6439 106.37C59.6178 106.142 59.5656 105.921 59.4873 105.704C59.4091 105.487 59.3061 105.292 59.1811 105.116C59.0547 104.94 58.8954 104.804 58.7045 104.707C58.5136 104.608 58.2994 104.566 58.0618 104.579C57.7954 104.593 57.5496 104.678 57.3271 104.838C57.1046 105 56.9178 105.205 56.7681 105.462C56.6184 105.719 56.5085 106.017 56.4371 106.359C56.3657 106.702 56.3437 107.047 56.3712 107.394C56.6733 111.273 56.8258 113.832 57.1279 117.391C57.1595 117.767 57.3078 118.094 57.5743 118.373C57.8393 118.652 58.1799 118.775 58.5878 118.756C58.9105 118.741 59.2141 118.667 59.4942 118.532C59.7744 118.399 60.012 118.223 60.2042 118.005C60.3965 117.786 60.5366 117.531 60.6259 117.234C60.7151 116.939 60.7412 116.63 60.7055 116.313C60.2825 112.612 60.071 110.075 59.648 106.37H59.6439Z" fill="white"/>
<path d="M82.009 114.736C80.8114 110.039 80.1783 105.395 78.9436 100.331C78.9354 100.337 78.9313 100.338 78.9217 100.343C78.8338 100.917 78.7129 101.538 78.5564 102.204C78.3998 102.868 78.2075 103.55 77.9768 104.238C77.7475 104.926 77.4755 105.606 77.1638 106.263C76.852 106.919 76.5059 107.532 76.1296 108.093C76.749 111.811 77.0594 113.904 77.6692 116.582C78.1663 116.403 78.4149 116.31 78.9107 116.112C78.956 116.303 78.978 116.395 79.0233 116.574C76.6405 117.503 75.2109 117.88 73.247 118.292C73.2099 118.123 73.1907 118.035 73.1536 117.854C73.5807 117.764 73.718 117.74 74.2399 117.613C73.534 114.144 73.1811 110.84 72.4751 106.048C71.9821 106.815 71.6237 107.511 71.2858 108.2C70.948 108.891 70.6788 109.601 70.4797 110.322C70.2805 111.045 70.1514 111.797 70.0993 112.568C70.0457 113.338 70.0745 114.173 70.1817 115.03C70.2792 115.81 70.4192 116.489 70.6046 117.061C70.7914 117.634 71.0853 118.17 71.485 118.636C69.5925 118.983 68.5817 119.136 66.475 119.393C66.4393 119.226 66.4214 119.138 66.3871 118.958C66.7263 118.917 66.8952 118.895 67.2303 118.851C67.0971 118.347 67.0793 117.741 67.1713 117.034C67.2633 116.326 67.4363 115.548 67.6835 114.711C67.9307 113.876 68.2384 113.004 68.5996 112.113C68.9621 111.222 69.3535 110.354 69.7738 109.527C70.194 108.7 70.6252 107.934 71.0702 107.231C71.5138 106.53 71.9203 105.954 72.3859 105.439C72.1744 104.031 72.0686 103.357 71.8571 102.204C71.3971 102.32 71.1842 102.364 70.7365 102.462C70.6994 102.261 70.6802 102.163 70.6431 101.972C72.71 101.516 73.7812 101.21 75.8605 100.277C75.9058 100.464 75.9291 100.56 75.9745 100.757C75.5377 100.953 75.3194 101.045 74.8799 101.221C75.3194 103.249 75.5405 104.604 75.9799 107.26C76.7119 105.958 77.2929 104.61 77.7296 103.3C78.1663 101.99 78.4025 100.681 78.452 99.5139C78.0784 99.7213 77.8917 99.8202 77.5167 100.014C77.4673 99.8188 77.4426 99.7227 77.3945 99.5386C79.471 98.4688 80.4996 97.8137 82.535 96.373C82.5954 96.5543 82.6242 96.6463 82.6846 96.8386C82.2671 97.1339 82.057 97.2781 81.6382 97.561C83.1269 102.508 83.9042 107.702 85.3393 112.959C85.8159 112.683 86.0521 112.543 86.5259 112.254C86.5836 112.46 86.6124 112.562 86.6701 112.76C84.3492 114.152 83.1749 114.784 80.8059 115.835C80.7578 115.652 80.7345 115.557 80.6864 115.364C81.2179 115.123 81.483 114.998 82.0131 114.74L82.009 114.736Z" fill="white"/>
<path d="M94.5998 90.5541C94.9088 91.3946 95.1615 92.4136 95.3455 93.6016C95.5309 94.7895 95.6394 96.0612 95.6655 97.3797C95.6916 98.6981 95.6353 100.026 95.4939 101.331C95.3524 102.635 95.1176 103.841 94.7907 104.941C94.4625 106.044 94.0463 106.996 93.5492 107.82C93.0507 108.644 92.4629 109.277 91.7954 109.748C91.2351 110.142 90.7173 110.328 90.249 110.3C89.7793 110.273 89.3605 110.104 88.991 109.776C88.6216 109.447 88.3057 109 88.0393 108.43C87.7729 107.86 87.56 107.244 87.398 106.595C87.1521 105.605 86.9901 104.505 86.9077 103.326C86.8253 102.147 86.8143 100.96 86.8692 99.7913C86.9241 98.6225 87.0422 97.4923 87.2222 96.4087C87.4007 95.3265 87.6355 94.3555 87.9253 93.4738C88.2151 92.5935 88.5639 91.8176 88.9732 91.1131C89.3824 90.4085 89.8425 89.8331 90.3575 89.3648C90.7791 88.9816 91.1994 88.7207 91.6224 88.5957C92.044 88.4707 92.4423 88.4584 92.8199 88.5778C93.1962 88.6973 93.5396 88.9226 93.85 89.2604C94.159 89.5996 94.4117 90.0322 94.6026 90.5541H94.5998ZM91.3024 92.5853C91.2282 92.3738 91.1307 92.187 91.0099 92.0263C90.889 91.8643 90.7489 91.742 90.591 91.6583C90.4331 91.5745 90.2532 91.5553 90.0526 91.5978C89.8521 91.6404 89.6434 91.7585 89.4278 91.9467C89.1847 92.1596 88.9801 92.4274 88.8125 92.7542C88.6463 93.0824 88.5241 93.4258 88.4458 93.7925C88.3689 94.1605 88.3359 94.5382 88.3469 94.931C88.3579 95.3251 88.4142 95.6863 88.5131 96.0132C89.6269 99.6745 90.1927 102.104 91.2708 105.977C91.3848 106.386 91.5949 106.672 91.9025 106.838C92.2088 107.003 92.5467 106.944 92.912 106.665C93.2004 106.444 93.4586 106.162 93.681 105.819C93.9049 105.476 94.0793 105.109 94.2043 104.719C94.3293 104.33 94.4007 103.929 94.4172 103.517C94.4336 103.108 94.3911 102.727 94.2908 102.386C93.1193 98.3973 92.5054 96.0324 91.3024 92.5839V92.5853Z" fill="white"/>
<path d="M101.505 100.953C100.099 96.8606 99.3364 94.2265 97.8312 90.1092C97.5195 89.2577 97.378 88.3637 97.3986 87.4312C97.4192 86.5 97.5497 85.5813 97.7873 84.6707C98.0235 83.7602 98.3421 82.8936 98.739 82.0545C99.1359 81.2167 99.5754 80.4504 100.044 79.7431C100.347 79.2858 100.678 78.8354 101.039 78.4014C101.399 77.9674 101.774 77.5801 102.164 77.234C102.567 76.8783 102.906 76.708 103.189 76.7259C103.47 76.7424 103.716 76.8893 103.925 77.186C104.106 77.4441 104.226 77.8575 104.276 78.4604C104.327 79.0633 104.329 79.7788 104.274 80.6207C104.22 81.4612 104.12 82.3965 103.971 83.4223C103.823 84.4482 103.649 85.4837 103.451 86.5083C103.253 87.5328 103.035 88.501 102.799 89.3923C102.562 90.285 102.347 91.0033 102.155 91.5361C103.132 94.2663 103.617 95.7262 104.54 98.315C105.037 97.8782 105.286 97.6613 105.777 97.2273C105.867 97.4745 105.912 97.5981 106 97.8412C103.919 99.6567 102.858 100.587 100.697 102.403C100.618 102.171 100.577 102.053 100.496 101.814C100.901 101.47 101.103 101.297 101.506 100.95L101.505 100.953ZM101.884 90.7931C102.085 89.943 102.271 89.0325 102.442 88.0698C102.61 87.1071 102.726 86.1581 102.786 85.2352C102.848 84.3137 102.837 83.4594 102.759 82.6821C102.681 81.9048 102.501 81.2621 102.225 80.7512C102.128 80.5726 102.01 80.4051 101.874 80.2485C101.737 80.092 101.583 79.9835 101.412 79.9203C101.24 79.8571 101.049 79.853 100.84 79.9038C100.63 79.9546 100.409 80.0906 100.177 80.3076C99.9805 80.4902 99.8432 80.7622 99.7663 81.1343C99.688 81.5079 99.6399 81.9103 99.6193 82.3539C99.5987 82.7975 99.6029 83.2301 99.6317 83.6531C99.6592 84.0774 99.6962 84.3988 99.7237 84.5911C99.7622 84.8575 99.8034 85.1363 99.8638 85.4027C99.9242 85.6691 100.007 85.926 100.108 86.1718C100.822 87.883 101.179 88.8443 101.887 90.7931H101.884Z" fill="white"/>
<path d="M93.5506 69.3592C93.986 67.8458 94.4474 66.2458 94.9611 64.4591C88.2042 63.0473 81.6217 61.6712 75.0378 60.2964C75.0804 59.9366 75.123 59.5754 75.1656 59.2156H95.3442V55.8399C92.3009 55.8399 89.3921 55.7795 86.4861 55.8537C82.3097 55.9594 78.1375 56.2121 73.9625 56.2835C73.1783 56.2973 72.3845 55.7507 71.5962 55.4623C72.2582 55.0145 72.8611 54.3443 73.5903 54.1534C79.7732 52.5288 85.9793 50.992 92.1773 49.4209C92.7692 49.2712 93.346 49.0611 93.975 48.866C94.1549 46.7882 93.3652 46.3899 91.4741 46.898C84.9686 48.6463 78.4273 50.2586 71.886 51.9272C70.889 49.9991 71.7885 49.1119 73.3596 48.3277C78.2076 45.9106 83.0115 43.4042 87.8265 40.9212C88.5709 40.538 89.2836 40.0944 89.7767 39.1825C83.5842 41.1753 77.8175 44.1472 71.7514 46.7552C70.9329 44.3395 71.3229 42.6873 73.4516 41.2192C76.5897 39.0534 79.5067 36.5649 82.5061 34.1973C83.1351 33.7015 83.7064 33.1343 84.3039 32.5987C84.1047 32.335 83.9042 32.0727 83.7051 31.809C79.7581 34.6642 75.8111 37.5208 71.1087 40.9226C72.1923 32.5328 69.9702 25.6234 64.8888 18.9709C73.3253 21.2095 80.1879 24.8873 86.0027 30.4178C103.902 47.4433 102.134 73.6578 82.1216 88.7097C63.7709 102.512 36.3299 101.827 18.703 87.1235C0.525268 71.9617 -0.36741 46.828 16.7308 30.4975C22.5566 24.9326 29.4645 21.2644 37.9574 18.9201C33.0188 25.4339 30.6497 32.1977 31.688 40.6438C27.1738 37.378 23.2446 34.5351 19.3155 31.6923C19.1287 31.8997 18.9433 32.1057 18.7565 32.313C19.1397 32.7511 19.4652 33.2593 19.9129 33.615C22.9741 36.0458 25.9611 38.5906 29.1761 40.8017C31.3598 42.3028 31.9379 44.0442 31.1181 46.8046C25.1426 44.0662 19.2042 41.3428 13.2659 38.6208C13.1093 38.9147 12.9514 39.2086 12.7948 39.5039C13.443 39.9379 14.0583 40.4378 14.7463 40.7935C19.7151 43.3658 24.6798 45.9463 29.6898 48.4389C31.2238 49.2025 31.8803 50.1309 31.0466 51.9533C23.9341 50.1391 16.8132 48.3222 9.47815 46.4517C9.17189 47.2153 8.90134 47.8951 8.51131 48.8688C13.465 50.1282 18.1715 51.3257 22.8793 52.5205C24.9448 53.0452 27.0351 53.4887 29.0663 54.1219C29.8724 54.3732 30.5495 55.0379 31.2856 55.5131C30.4877 55.785 29.6829 56.3096 28.8919 56.289C22.6719 56.1311 16.4562 55.8646 10.2376 55.6422C9.37103 55.6106 8.5017 55.638 7.45246 55.638V58.9959H27.5693C21.6529 63.0816 14.6186 62.5021 7.86721 64.3437C8.36024 66.1456 8.81482 67.8101 9.24743 69.3949C13.9759 67.6617 18.6247 66.2678 22.9878 64.2572C26.3608 62.7026 29.4151 60.4297 32.5079 58.3257C32.9597 58.0181 32.9693 56.8796 32.9735 56.1242C33.0105 50.7063 33.0888 45.2857 32.9474 39.872C32.8924 37.7735 33.5461 36.5031 35.5348 35.8577C38.5548 34.8771 41.4924 33.4927 44.5838 32.9255C47.9966 32.2993 49.3534 33.6603 49.5224 37.1308C49.6556 39.85 49.5484 42.5802 49.5484 45.4285H53.3169C53.3169 42.5569 53.2071 39.8211 53.3444 37.0992C53.5202 33.6026 54.8633 32.1949 58.2651 32.9448C61.9347 33.7537 65.4464 35.3509 68.9319 36.8286C69.4936 37.0662 69.7999 38.4711 69.8122 39.3418C69.8905 44.7583 69.9043 50.1776 69.8232 55.5955C69.7971 57.341 70.1034 58.382 71.9382 59.2623C74.5764 60.5258 76.7944 62.6421 79.3804 64.0443C81.667 65.2831 84.1967 66.0879 86.6495 67.0025C88.7961 67.8032 90.9852 68.4899 93.5479 69.3592H93.5506ZM63.2449 90.6448C73.0465 87.9901 79.4422 81.8128 82.7149 72.1498C82.2562 74.9886 81.6258 77.7531 80.2772 80.1057C75.3537 88.7001 67.321 92.3285 57.8737 93.5068C55.4236 93.8117 52.9859 94.21 50.5414 94.5657C56.9206 95.652 63.0155 94.769 68.8866 92.4686C75.649 89.8194 81.2056 85.6774 84.1391 78.8326C85.0482 76.7108 85.474 74.214 85.4437 71.8985C85.4025 68.7783 83.3137 66.9311 80.2525 66.5603C79.4545 78.0251 72.4999 85.1349 63.2435 90.6448H63.2449ZM68.1258 37.6155C67.8099 37.6622 67.4954 37.7103 67.1795 37.757C67.1356 38.6826 67.0559 39.6083 67.0518 40.5339C67.0147 48.7836 66.9268 57.0334 66.9859 65.2817C67.0326 71.8656 64.7089 77.6048 60.9747 82.84C59.6549 84.6886 57.9767 86.2816 56.4619 87.9915C56.5882 88.1988 56.7146 88.4076 56.8409 88.615C59.5492 86.9051 62.5184 85.4975 64.908 83.421C69.5032 79.4286 72.5768 74.3664 73.5766 68.2523C74.1438 64.7818 73.2813 62.8317 70.8725 61.5435C71.4616 70.0569 69.4346 76.5954 65.1854 79.9793C66.063 77.819 67.2029 75.6807 67.7838 73.401C68.3895 71.0223 68.6998 68.5077 68.7163 66.0494C68.7712 57.4467 68.6573 48.8413 68.5666 40.2386C68.557 39.3624 68.2796 38.489 68.1271 37.6142L68.1258 37.6155ZM37.1938 90.8631C37.441 90.6585 37.6895 90.4525 37.9368 90.2479C37.3339 89.5159 36.8614 88.5889 36.1061 88.0821C30.9876 84.6446 26.7261 80.427 24.4065 74.6452C23.3724 72.0661 22.9851 69.2287 22.3039 66.504C18.5038 67.2964 16.4754 70.587 17.3983 74.957C18.6727 80.9915 22.2242 85.551 27.2191 88.9817C29.1281 90.2932 31.3076 91.2092 33.3635 92.3052C33.4912 92.117 33.6189 91.9289 33.7467 91.7407C27.502 86.3146 20.7163 81.2387 20.4142 71.9686C23.1705 80.8267 29.0306 86.8667 37.1938 90.8645V90.8631ZM39.3183 84.8987C41.3701 83.6077 41.6517 82.4665 40.4266 80.6124C37.2171 75.7563 35.7531 70.3563 35.8177 64.4907C35.9069 56.4167 35.8177 48.34 35.7861 40.2647C35.782 39.3899 35.6542 38.5151 35.5842 37.6389C35.2807 37.6293 34.9772 37.6197 34.675 37.61C34.5267 38.5632 34.2548 39.5149 34.2479 40.4694C34.2012 46.9475 34.3235 53.4283 34.1696 59.9037C34.0117 66.5122 33.9444 73.0576 37.4094 79.0358C37.4698 79.1388 37.3352 79.3545 37.2254 79.7678C32.8663 74.3088 30.6525 68.4377 32.1728 61.2152C28.9962 62.9333 28.9166 65.5413 29.2682 68.0943C30.2309 75.071 34.3921 80.184 39.3183 84.8987ZM60.0724 80.53C64.3559 71.3355 63.433 62.0763 59.9214 52.1223C63.878 56.9359 64.2323 62.1532 65.0714 67.2209C66.3679 61.0957 65.7046 55.3922 61.1505 50.7173C58.9641 48.4733 56.2119 47.5957 53.4543 48.2961C55.0075 50.4605 56.6597 52.4079 57.8847 54.5943C58.6854 56.0226 58.9861 57.775 59.3102 59.4216C60.6891 66.4161 61.3703 73.4422 60.0711 80.5287L60.0724 80.53ZM42.8451 52.1841C38.8899 65.2089 39.0052 75.7192 43.286 80.986C41.4539 73.5658 42.0554 66.6221 43.481 59.7471C44.0317 57.0883 44.9752 54.4377 46.2098 52.0234C46.9185 50.639 48.5706 49.7368 49.8863 48.5364C46.2826 47.7069 43.2612 48.6188 40.9416 51.4425C37.0921 56.1297 36.4865 61.5229 37.7568 67.2484C38.5877 62.1958 38.9311 57.01 42.8465 52.1827L42.8451 52.1841ZM64.0057 50.5676C63.9961 50.5113 63.992 49.9634 63.7997 49.495C62.8425 47.1796 63.0444 45.2679 64.7926 43.2023C65.7375 42.0858 66.0451 40.0546 65.9202 38.4931C65.7032 35.7588 62.7917 34.509 60.3952 35.7807C61.5419 36.282 62.7189 36.7957 63.8972 37.3093C63.8313 37.5922 63.7654 37.8765 63.6995 38.1594C62.7889 38.0454 61.877 37.9314 60.7234 37.7886C59.763 38.8424 57.9547 38.9637 55.2987 38.1525C56.1707 39.4957 56.7682 40.4172 57.4521 41.4692C56.51 41.2041 55.6516 40.9624 53.8635 40.4584C54.8551 42.8357 55.1119 45.0619 56.3589 46.0919C58.6496 47.9844 61.5241 49.1709 64.0057 50.5676ZM39.1577 38.11C39.1508 37.7831 39.1426 37.4562 39.1357 37.1294C40.5557 36.5965 41.9744 36.0623 43.882 35.3454C40.9348 34.5351 39.0299 35.3797 37.5412 37.1651C36.1706 38.809 36.1761 40.9308 37.533 42.2987C39.9597 44.7432 40.0586 47.2606 38.8912 50.168C38.7923 50.4138 38.8775 50.7352 38.8775 50.8478C40.8043 49.5129 42.5402 47.9871 44.5426 46.9955C47.8688 45.3475 48.4594 44.562 47.9389 40.6603C47.3868 40.8567 46.858 41.0448 46.2414 41.2645C46.5051 40.218 46.7358 39.3061 46.8155 38.9916C44.0372 38.6717 41.5981 38.3901 39.159 38.1086L39.1577 38.11ZM50.9918 88.0972C55.0597 77.2354 52.221 66.298 51.3475 55.3812C47.4431 66.2444 50.5125 77.1859 50.9918 88.0972ZM48.2822 85.9658C47.9251 80.3446 47.3113 75.4253 47.384 70.5156C47.4596 65.5372 48.2135 60.5684 48.6365 55.9608C43.2709 59.8391 42.5004 77.6529 48.2822 85.9658ZM54.2865 85.7254C59.5506 78.8916 58.9065 61.2427 53.3677 55.3112C54.2412 65.4822 56.9673 75.1754 54.2865 85.7254ZM43.0497 84.7613C40.2165 86.853 38.9214 89.8015 40.1588 92.3752C40.7329 93.5714 42.3136 94.9324 43.5373 95.0326C46.0176 95.2373 47.3044 93.2239 48.3014 91.1103C49.1708 89.2701 47.6615 88.8594 46.7221 88.0437C45.5232 87.004 44.3544 85.9301 43.0497 84.7613ZM76.9344 64.0828C76.5939 64.0787 76.2533 64.0732 75.9113 64.069C76.8054 75.8579 69.1627 82.472 60.5311 89.1231C69.3027 86.4107 77.0787 77.0527 77.6967 68.8401C77.8134 67.2827 77.2064 65.6704 76.9331 64.0828H76.9344ZM38.324 86.7747C31.9682 80.004 26.6382 73.4655 26.8648 64.0169C21.8795 68.6245 28.7655 82.564 38.324 86.7747ZM17.0481 82.5557C17.3461 82.369 17.6441 82.1822 17.9421 81.9954C15.5044 78.3917 14.436 74.4873 15.5085 69.5199C13.373 70.451 11.8582 71.1102 9.73771 72.0345C12.3883 75.8483 14.7175 79.202 17.0481 82.5544V82.5557ZM88.4624 69.9662C87.4255 74.3967 86.4985 78.3588 85.3806 83.1408C88.1149 79.1938 90.4482 75.8277 93.0521 72.0702C91.0086 71.1336 89.5514 70.4661 88.4637 69.9676L88.4624 69.9662ZM47.9883 52.2033C47.9911 52.4326 47.9952 52.6606 47.9979 52.89H54.8358C54.8317 52.6606 54.8276 52.4326 54.8235 52.2033H47.9883Z" fill="white"/>
<path d="M33.2823 34.0641C33.7671 29.0912 35.043 24.8956 37.5095 21.1656C39.5599 18.0659 41.9455 15.1887 44.1044 12.1577C46.6313 8.609 50.1348 5.59037 50.4204 0.776774C50.4383 0.482876 51.0576 -0.0486107 51.2925 0.0035767C51.7155 0.098338 52.3774 0.541931 52.3843 0.853681C52.4818 4.92979 55.3507 7.55014 57.4547 10.5386C59.1879 13.001 61.1971 15.267 63.0182 17.6704C66.5642 22.3494 68.9112 27.5269 69.5333 33.9968C64.029 29.6254 58.1771 27.3237 51.4696 27.3333C44.7237 27.3443 38.8005 29.5279 33.2823 34.0627V34.0641ZM53.917 8.51561C53.711 9.17757 53.2358 9.88759 53.3415 10.4946C53.9994 14.2356 54.8618 17.9395 55.5142 21.6806C56.2805 26.0739 56.3437 26.1948 61.583 26.4681C59.9872 22.8616 58.493 19.5107 57.0207 16.1501C56.0017 13.825 55.0115 11.4862 54.009 9.15422C57.0152 14.7465 59.9982 20.3525 63.0456 25.9228C63.7763 27.2591 64.7252 28.4759 65.574 29.7476C65.8294 29.6048 66.0849 29.462 66.3403 29.3205C66.3211 28.8975 66.3733 28.458 66.2744 28.0557C64.3132 20.0971 58.6385 14.362 54.1724 7.9031C54.0873 8.10773 54.0021 8.31098 53.917 8.51561ZM51.7759 7.18758C51.5273 7.19857 51.2788 7.21093 51.0315 7.22191C50.2941 13.1218 49.5579 19.0217 48.804 25.0494H54.0461C53.2729 18.9668 52.5244 13.0765 51.7773 7.18758H51.7759ZM41.2492 26.2318C41.5994 26.5244 41.9496 26.8155 42.2998 27.108C43.8063 26.2305 46.3168 25.6248 46.6423 24.4273C48.017 19.3665 48.7408 14.1285 49.7021 8.95508C49.5621 8.90701 49.422 8.85895 49.2833 8.81088C46.6052 14.6174 43.9272 20.4253 41.2492 26.2318ZM48.782 8.64883C43.7871 15.0226 37.7595 20.792 36.426 29.1969C36.8586 29.5897 37.2912 29.9838 37.7238 30.3766C38.3116 29.3027 38.9378 28.2466 39.4803 27.1492C41.9812 22.1049 44.4504 17.0455 46.9527 12.0026C47.5185 10.8627 48.1695 9.76536 48.782 8.64883Z" fill="white"/>
<path d="M43.7927 86.9079C42.3933 90.1009 42.5031 90.8494 44.8955 92.9067C44.0756 92.801 42.7545 92.9603 42.532 92.54C41.9648 91.4674 41.5638 90.0886 41.7313 88.924C41.8398 88.1686 43.0662 87.5753 43.7927 86.9093V86.9079Z" fill="white"/>
</svg>
