<svg width="21" height="23" viewBox="0 0 21 23" fill="none" xmlns="http://www.w3.org/2000/svg">
<path d="M6.42699 15.5745C8.83385 18.4708 11.7708 20.6669 14.9793 22.1388C16.0322 22.6219 17.2577 22.397 18.1486 21.6566L19.6548 20.405C20.4054 19.7813 20.4395 18.6407 19.7274 17.9733L16.8726 15.2972C16.5088 14.9563 16.0085 14.8014 15.5157 14.8774L12.5289 15.3378C11.9656 15.4246 11.398 15.2095 11.0338 14.7712L8.05995 11.1926C7.69568 10.7542 7.58812 10.1569 7.77659 9.619L8.77591 6.76692C8.94078 6.29638 8.88017 5.77617 8.61153 5.35614L6.50325 2.0597C5.9774 1.23749 4.84992 1.06223 4.09929 1.686L2.59313 2.93761C1.70219 3.67798 1.25683 4.84157 1.53898 5.9651C2.39876 9.3888 4.02014 12.6781 6.42699 15.5745Z" stroke="white"/>
</svg>
